<svg xmlns="http://www.w3.org/2000/svg" viewBox="0 0 25 25" id="online-shopping"><path d="M9.802 16.806a.5.5 0 0 1-.5.5H7.117v.71a.615.615 0 0 0 .614.615h.613a.5.5 0 0 1 0 1h-.613a1.616 1.616 0 0 1-1.614-1.614V3.974A1.616 1.616 0 0 1 7.73 2.36h7.423a1.616 1.616 0 0 1 1.614 1.614v9.93a.5.5 0 0 1-1 0v-9.93a.615.615 0 0 0-.614-.614h-3.211v.179a.5.5 0 0 1-1 0v-.18H7.73a.615.615 0 0 0-.614.615v12.332h2.185a.5.5 0 0 1 .5.5Zm7.72-1.19-2.65-.412v-2.849a1.445 1.445 0 0 0-2.891 0v3.127l-1.466 2.223a2.743 2.743 0 0 0-.184 2.677l.94 1.973a.5.5 0 0 0 .902-.43l-.94-1.973a1.74 1.74 0 0 1 .116-1.696l.632-.958v1.353a.5.5 0 0 0 1 0v-6.296a.445.445 0 0 1 .89 0v3.278c0 .015.008.028.009.042a.485.485 0 0 0 .025.123.475.475 0 0 0 .032.069.43.43 0 0 0 .124.15.476.476 0 0 0 .081.054.483.483 0 0 0 .097.036.465.465 0 0 0 .052.019l3.076.479a.62.62 0 0 1 .515.66l-.379 4.836a.499.499 0 0 0 .46.538.535.535 0 0 0 .04.001.5.5 0 0 0 .496-.46l.38-4.838a1.624 1.624 0 0 0-1.357-1.725ZM9.756 9.01l-.414 3.707 1.139.063a.5.5 0 0 1 0 1H9.399a1.057 1.057 0 0 1-1.053-1.16l.358-3.656a1.055 1.055 0 0 1 1.052-.954h.462v-.56a1.313 1.313 0 1 1 2.627 0v.56h.285a1.053 1.053 0 0 1 1.047.948l.041.425a.5.5 0 0 1-.45.545.407.407 0 0 1-.049.002.5.5 0 0 1-.497-.452l-.04-.42-1.741-.048Zm1.462-1h.627v-.56a.313.313 0 1 0-.627 0Z" data-name="Online Shopping"></path></svg>